<?xml version="1.0" encoding="UTF-8"?>
<svg xmlns="http://www.w3.org/2000/svg" xmlns:xlink="http://www.w3.org/1999/xlink" viewBox="0 0 720 700">
  <defs>
    <linearGradient id="Degradado_sin_nombre_146" data-name="Degradado sin nombre 146" x1="268.41" y1="205.9" x2="268.51" y2="205.9" gradientUnits="userSpaceOnUse">
      <stop offset="0" stop-color="#fff"/>
      <stop offset="0" stop-color="#ccc"/>
      <stop offset="1" stop-color="#999"/>
    </linearGradient>
    <linearGradient id="Degradado_sin_nombre_146-2" data-name="Degradado sin nombre 146" x1="445.94" y1="205.9" x2="446.04" y2="205.9" xlink:href="#Degradado_sin_nombre_146"/>
    <linearGradient id="Degradado_sin_nombre_146-3" data-name="Degradado sin nombre 146" x1="272.63" x2="272.73" xlink:href="#Degradado_sin_nombre_146"/>
    <linearGradient id="Degradado_sin_nombre_146-4" data-name="Degradado sin nombre 146" x1="202.7" y1="366.89" x2="520.19" y2="366.89" xlink:href="#Degradado_sin_nombre_146"/>
    <linearGradient id="Degradado_sin_nombre_146-5" data-name="Degradado sin nombre 146" x1="450.16" y1="205.9" x2="450.26" y2="205.9" xlink:href="#Degradado_sin_nombre_146"/>
    <linearGradient id="Degradado_sin_nombre_86" data-name="Degradado sin nombre 86" x1="323.38" y1="517.62" x2="400.9" y2="517.62" gradientUnits="userSpaceOnUse">
      <stop offset="0" stop-color="#4e3e1f"/>
      <stop offset="1" stop-color="#bfad7f"/>
    </linearGradient>
    <linearGradient id="Degradado_sin_nombre_86-2" data-name="Degradado sin nombre 86" x1="297.06" y1="258.05" x2="425.59" y2="258.05" xlink:href="#Degradado_sin_nombre_86"/>
    <linearGradient id="Degradado_sin_nombre_86-3" data-name="Degradado sin nombre 86" x1="320.41" y1="186.52" x2="402.48" y2="186.52" xlink:href="#Degradado_sin_nombre_86"/>
  </defs>
  <g id="Capa_4" data-name="Capa 4">
    <g>
      <path d="M268.51,205.9c-.06-.05-.1-.08-.1-.08,0,0,.04.32.1.08Z" fill="url(#Degradado_sin_nombre_146)"/>
      <path d="M512.6,250.24c-16.41-51.74-33.56-62.11-33.56-62.11l-12.78,5.89c15.44,14.67,30.56,51.56,28.11,52.22-2.44.67-18.33,20.56-24.56,31.67-6.22,11.11-25.22,29.78-27.67,32.11-2.44,2.33-4,.78-4,.78l-.11-2.31-.22-30c-2-10.67-16.78-16.22-16.78-16.22,0,0,.56-22.56.33-23.11-.22-.56-2.67-.44-2.67-.44.32-10.41,25.52-31.39,27.24-32.81-.09-.34-.22-1.82-.35-6.97-.22-8.78-47.33-10.96-47.33-10.96l-3.56-5.63c15.13-15.71,20.51-38.35,13.88-58.7-7.28-22.33-27.82-38.24-51.81-40-23.72,1.53-44.16,17.17-51.53,39.33-6.88,20.7-1.24,43.78,14.49,59.37l-3.56,5.63s-47.11,2.19-47.33,10.96c-.13,5.15-.26,6.63-.35,6.97,1.72,1.42,26.91,22.4,27.24,32.81,0,0-2.44-.11-2.67.44s.33,23.11.33,23.11c0,0-14.78,5.56-16.78,16.22l-.22,30-.11,2.31s-1.56,1.56-4-.78c-2.44-2.33-21.44-21-27.67-32.11-6.22-11.11-22.11-31-24.56-31.67-2.44-.67,12.67-37.56,28.11-52.22l-12.78-5.89s-17.15,10.37-33.56,62.11c0,0-7.59,48.19,0,72.19,0,0,3.44,36,25.67,74.81,22.22,38.81,28.59,48.89,40.59,60.89s22.67,27.26,48.74,48.15l3.11,4.81.03.63.41,8.37-32.89,25.56.93,71.63,34.89,32.22c22.59,0,45.19,0,67.78,0,11.63-10.74,23.26-21.48,34.89-32.22l.93-71.63-32.89-25.56,3.56-13.81c26.07-20.89,36.74-36.15,48.74-48.15s18.37-22.07,40.59-60.89c22.22-38.81,25.67-74.81,25.67-74.81,7.59-24,0-72.19,0-72.19ZM218.51,261.56c6.67,4,11.56,20.44,22.67,37.33,11.11,16.89,31.11,34.89,31.11,34.89-2.77,22.48,16.44,127.33,16.44,127.33-86.22-101.63-76.89-203.56-70.22-199.56ZM421.38,461.11s21.58-95.85,16.62-126.37c0,0,28.89-23.56,37.78-40.44,8.89-16.89,17.56-29.11,20.67-31.33,3.11-2.22,22.31,84.81-75.06,198.15Z" fill="#6b6b6b"/>
      <path d="M446.04,205.81s-.04.03-.1.08c.06.24.1-.08.1-.08Z" fill="url(#Degradado_sin_nombre_146-2)"/>
    </g>
  </g>
  <g id="Capa_2" data-name="Capa 2">
    <g>
      <path d="M272.73,205.9c-.06-.05-.1-.08-.1-.08,0,0,.04.32.1.08Z" fill="url(#Degradado_sin_nombre_146-3)"/>
      <path d="M516.81,250.24c-16.41-51.74-33.56-62.11-33.56-62.11l-12.78,5.89c15.44,14.67,30.56,51.56,28.11,52.22-2.44.67-18.33,20.56-24.56,31.67-6.22,11.11-25.22,29.78-27.67,32.11-2.44,2.33-4,.78-4,.78l-.11-2.31-.22-30c-2-10.67-16.78-16.22-16.78-16.22,0,0,.56-22.56.33-23.11-.22-.56-2.67-.44-2.67-.44.32-10.41,25.52-31.39,27.24-32.81-.09-.34-.22-1.82-.35-6.97-.22-8.78-47.33-10.96-47.33-10.96l-3.56-5.63c15.25-15.6,20.64-38.31,13.88-58.7-7.28-21.96-27.42-37.55-50.91-39.34-23.96.94-44.87,16.43-52.42,38.68-7.01,20.67-1.36,43.82,14.49,59.37l-3.56,5.63s-47.11,2.19-47.33,10.96c-.13,5.15-.26,6.63-.35,6.97,1.72,1.42,26.91,22.4,27.24,32.81,0,0-2.44-.11-2.67.44s.33,23.11.33,23.11c0,0-14.78,5.56-16.78,16.22l-.22,30-.11,2.31s-1.56,1.56-4-.78c-2.44-2.33-21.44-21-27.67-32.11-6.22-11.11-22.11-31-24.56-31.67-2.44-.67,12.67-37.56,28.11-52.22l-12.78-5.89s-17.15,10.37-33.56,62.11c0,0-7.59,48.19,0,72.19,0,0,3.44,36,25.67,74.81,22.22,38.81,28.59,48.89,40.59,60.89s22.67,27.26,48.74,48.15l3.11,4.81.03.63.41,8.37-32.89,25.56.93,71.63,34.89,32.22c22.59,0,45.19,0,67.78,0,11.63-10.74,23.26-21.48,34.89-32.22l.93-71.63-32.89-25.56,3.56-13.81c26.07-20.89,36.74-36.15,48.74-48.15s18.37-22.07,40.59-60.89c22.22-38.81,25.67-74.81,25.67-74.81,7.59-24,0-72.19,0-72.19ZM222.73,261.56c6.67,4,11.56,20.44,22.67,37.33,11.11,16.89,31.11,34.89,31.11,34.89-2.77,22.48,16.44,127.33,16.44,127.33-86.22-101.63-76.89-203.56-70.22-199.56ZM425.59,461.11s21.58-95.85,16.62-126.37c0,0,28.89-23.56,37.78-40.44,8.89-16.89,17.56-29.11,20.67-31.33,3.11-2.22,22.31,84.81-75.06,198.15Z" fill="url(#Degradado_sin_nombre_146-4)"/>
      <path d="M450.26,205.81s-.04.03-.1.08c.06.24.1-.08.1-.08Z" fill="url(#Degradado_sin_nombre_146-5)"/>
    </g>
    <g>
      <g id="Capa_6" data-name="Capa 6">
        <path d="M405.78,144.89s2.07-17.67.7-22.89c0,0-9.63-11.11-17.33-16.44,0,0-16.48,4.67-18.59,7.44,0,0-1.44,19.67-1.44,25,0,0,17.78,13.56,17.89,15.22,0,0-4.56,20.78-5.78,22.78,0,0,7.11,4.89,15.33,4.67,0,0,13.11-12.44,14.44-19.11,0,0-1.17-10.94-5.22-16.67,0,0-18.29,8.82-18.78,8.33" fill="none" stroke="#bfad7f" stroke-miterlimit="10"/>
        <path d="M369.11,138s-20.11,6.89-24.44,7.89l-13.78-20.33s15.33-19.89,16.22-20c.89-.11,23.59,5.47,23.44,7.44" fill="none" stroke="#bfad7f" stroke-miterlimit="10"/>
        <path d="M330.89,125.56s-7.78,1.22-15.44,3.22c0,0-2.83-11.07-2.38-12.63" fill="none" stroke="#bfad7f" stroke-miterlimit="10"/>
        <path d="M315.44,128.78s-5.11,12.44-4.67,22.44c0,0-2.56.44-3.33,0" fill="none" stroke="#bfad7f" stroke-miterlimit="10"/>
        <path d="M310.78,151.22s6.18,12.63,11.14,18.7c0,0,1.75,6.3,5.86,13.63" fill="none" stroke="#bfad7f" stroke-miterlimit="10"/>
        <path d="M321.92,169.93s13.08-.37,17.63-2.26c0,0,16.44,14.8,19,15.78v.98" fill="none" stroke="#bfad7f" stroke-miterlimit="10"/>
        <path d="M358.56,183.44s21.33-5.56,22.67-7.44" fill="none" stroke="#bfad7f" stroke-miterlimit="10"/>
        <path d="M344.67,145.89s-4.22,16.11-5.11,21.78" fill="none" stroke="#bfad7f" stroke-miterlimit="10"/>
        <line x1="395.56" y1="180.67" x2="395.67" y2="182.78" fill="none" stroke="#bfad7f" stroke-miterlimit="10"/>
        <line x1="410.91" y1="161.94" x2="412.5" y2="161.56" fill="none" stroke="#bfad7f" stroke-miterlimit="10"/>
        <path d="M347.11,105.56s-.63-10.3-2.41-13.33c-4.6.81-8.55,1.51-13.16,2.32" fill="none" stroke="#bfad7f" stroke-miterlimit="10"/>
        <path d="M344.7,92.22s12.67-7.33,16.3-7.33" fill="none" stroke="#bfad7f" stroke-miterlimit="10"/>
        <path d="M384.73,90.82c1.47,4.91,2.94,9.82,4.42,14.73" fill="none" stroke="#bfad7f" stroke-miterlimit="10"/>
        <path d="M406.48,122c1.41-1.24,2.83-2.48,4.24-3.72" fill="none" stroke="#bfad7f" stroke-miterlimit="10"/>
      </g>
      <path d="M306.55,141.56c.39-26.93,22.36-56.67,54.54-56.67,30.12,0,54.54,25.37,54.54,56.67,0,2.18.45,27.73-19.97,43.83-4.91,3.87-63.78,2.94-68.67-.96-1.4-1.12-20.82-17.14-20.45-42.87Z" fill="none" stroke="#bfad7f" stroke-miterlimit="10"/>
    </g>
    <g id="Capa_3" data-name="Capa 3">
      <path d="M361,512.04c6.21-.03,12.69-.21,19.43-.57,7.13-.38,13.96-.94,20.47-1.63l-2.64,10.25s-26.84,11.94-73.63,0l-.41-8.37-.84-1.88c12.54.73,25.08,1.46,37.62,2.2Z" fill="url(#Degradado_sin_nombre_86)"/>
      <path d="M361,249.85s59.94-.67,61.93-11.15c.42,0,.82,0,1.18.01.52.01.78.04,1.07.17.18.09.32.19.41.26-.11,7.7-.22,15.41-.33,23.11-9.02,4.68-20.24,9.26-33.51,12.16-42.79,9.35-78.79-4.91-94.12-12.16-.19-7.68-.38-15.36-.57-23.04.26-.17.67-.39,1.22-.52.73-.17,1.35-.08,1.69,0,.28.18.72.44,1.25.75,8.69,5.04,16.75,6.24,23.01,7.06,15.79,2.07,29.38,2.95,36.77,3.34Z" fill="url(#Degradado_sin_nombre_86-2)"/>
      <path d="M323.96,182.33s28.74,4.7,74.96,0l3.56,5.63s-23.26,6.19-82.07,0l3.56-5.63Z" fill="url(#Degradado_sin_nombre_86-3)"/>
    </g>
  </g>
  <g id="Capa_7" data-name="Capa 7">
    <path d="M448.71,197.46c-.47-.28-1.16-.13-1.72.04-5.67,1.86-12.18,3.61-18.01,4.84-33.04,4.93-78.52,4.18-114.81,1.28-13.06-1.11-26.54-2.72-38.64-4.53-.78-.11-1.94-.35-2.33.31-.16.26-.26.56-.31.9-.14,1.78-.35,4.01-.25,5.59,1.93.61,95.74,21.33,175.1.59,2.56-.77,2.47-2.59,2.03-5.05-.24-1.25-.07-2.94-.97-3.89l-.1-.07Z" fill="#afafaf"/>
    <path d="M291.74,545.65c10.9,4.01,23.69,7.66,38.19,9.92,43.32,6.76,79.6-2.34,101.21-9.92l-.06,4.73c-17.7,6.64-33.4,9.72-45.2,11.23-10.29,1.32-31.38,3.21-57.69-.95-14.99-2.37-27.37-6.02-36.45-9.22v-5.8Z" fill="#afafaf"/>
    <path d="M292.61,612.67c10.61,3.82,22.96,7.27,36.88,9.44,42.97,6.7,79.05-2.2,100.8-9.77-.02,1.65-.04,3.29-.06,4.94-17.69,6.45-33.24,9.42-44.78,10.88-29.61,3.75-52.17.03-57.69-.95-14.73-2.6-26.67-6.6-35.08-9.93-.02-1.54-.04-3.07-.06-4.61Z" fill="#afafaf"/>
  </g>
</svg>