<?xml version="1.0" encoding="UTF-8"?><svg id="Capa_1" xmlns="http://www.w3.org/2000/svg" xmlns:xlink="http://www.w3.org/1999/xlink" viewBox="0 0 22.82 15.8"><defs><linearGradient id="Degradado_sin_nombre_187" x1="0" y1="12.81" x2="6.18" y2="12.81" gradientUnits="userSpaceOnUse"><stop offset=".16" stop-color="#2993c5"/><stop offset=".91" stop-color="#2993c5" stop-opacity="0"/></linearGradient><linearGradient id="Degradado_sin_nombre_260" x1="6.57" y1="7.9" x2="22.82" y2="7.9" gradientUnits="userSpaceOnUse"><stop offset="0" stop-color="#1f2248"/><stop offset=".29" stop-color="#111025"/><stop offset=".54" stop-color="#15142d"/><stop offset=".72" stop-color="#1d2042"/></linearGradient></defs><ellipse cx="14.86" cy="7.77" rx="7.7" ry="7.72" fill="#fff"/><path d="M11.99,2.4s.1-.58-.18-1.1c-.35-.65-2.15-.72-4.36.03l.23,3.31.4,5.51c1.18.36,1.72.19,1.99-.07.71-.67-.49-1.87.1-3.78.28-.88,1.16-2.63,1.58-3.31.04-.07.18-.28.23-.59Z" fill="#fff"/><path d="M4.66,1.33c-.99.31-1.99.63-2.98.94l.1,1.43,1.1-.1,1.55,6.66,1.79.12-.93-7.24,1.32-.35-.36-1.78c-.53.11-1.05.22-1.58.33Z" fill="#fff"/><path d="M22.5,7.89c-.35.65-1,1.65-2.14,2.55-.87.69-2.85,1.98-5.52,1.84-2.12-.11-3.58-1.06-4.24-1.5-2.28-1.52-3.21-3.62-3.54-4.49-.07.45-.66,4.41,2.22,7.16,1.42,1.36,3.06,1.82,3.89,1.99,1.4.3,2.49.16,3.1.04,3.01-.61,5.29-3.09,5.98-5.68.22-.82.25-1.52.24-1.93Z" fill="#d6d7d7"/><path d="M16.34,4.34l-.16-.68c-.05,0-.11,0-.16-.01.05.23.1.46.15.69h.17Z" fill="#92c141"/><path d="M12.29,6.75c-.45-.07-.9-.15-1.35-.22h-.56v.09c.63.1,1.26.2,1.9.3,0-.06,0-.11.01-.17Z" fill="#92c141"/><path d="M22.58,7.19c-.04-.46-.23-2.15-1.47-3.83-.48-.66-.95-1.08-1.15-1.26-.34-.3-1.27-1.04-2.71-1.51-.6-.19-2.78-.86-4.98.04-.19.08-.34.15-.43.2l.26.05.45-.18c.12-.04.19,0,.19,0l-.14.2s3.15.63,3.57.72c.42.09.44.15.44.15l.85-.41c.33-.05.32,0,.32,0,0,0,1.87.8,2.37,1.17.5.36.6.73.6.73,0,0,.01.1.35,1.15.34,1.05.22,1.01.22,1.01,0,0-1.58.92-1.72,1-.15.08-.29,0-.29,0l-2.86-1.8s-.16,1.52-.17,1.66c0,.14-.16.17-.16.17-.41,0-.82,0-1.23,0-.15.88-.29,1.75-.44,2.63.46.84.56,1.18.54,1.32,0,.01-.03.27-.03.27,0,0-2,2.28-2.07,2.35-.07.06-.11.04-.11.04-1.62-.49-2.92-1.06-2.92-1.06-.73-.98-.86-1.56-.86-1.56h-.16c.27.69.72,1.42.79,1.59.08.17.04,1.27.04,1.27-.76-.71-2.13-2.21-2.43-4.41-.06-.43-.07-.83-.05-1.2l.4.45c-.09-.95-.18-1.91-.28-2.86-.24.72-.67,2.35-.2,4.35.15.65.62,2.51,2.35,4.04,1.93,1.7,4.14,1.87,4.79,1.91,1.78.11,3.08-.41,3.35-.51,1.28-.52,2.05-1.27,2.53-1.73.55-.54,1.81-1.8,2.28-3.86.09-.37.25-1.21.15-2.28ZM17.36.81h0s1.91.75,2.06,1.17c0,0-1.92-.9-2.06-1.17ZM15.88,15.21c-.91.09-1.4.02-1.4.02l.15-.18s2.32-.21,2.45-.16c0,0-.3.23-1.21.32ZM19.95,12.46l-1.22,1.32c-.8.92-1.21.93-1.21.93-.3.12-2.89.18-2.94.16-.05-.02-.09-.08-.09-.08l-1.48-1.59s.7-.82.7-.82l.09-.14c.09-.14,1.41-1.61,1.41-1.61.8-.15,3.61-.21,3.61-.21.15,0,.17.07.17.07l.43.74.51.89c.06.23.01.31.01.31ZM22.42,8.36c-.03.37-.18,1.77-.51,2.22,0,0-.13.44-.72.9l-.92.68s-.09.12-.22-.11l-.92-1.61s-.05-.71.04-1.24l.29-2.22s.04-.34.24-.44l1.67-.98s.1-.1.21.09c0,0,.52.71.79,1.33,0,0,.08,1.01.05,1.38Z" fill="#92c141"/><path d="M0,14.24h.78s.97-1.11,5.03-1.27l.36-1.59s-3.77,1.15-6.18,2.86" fill="url(#Degradado_sin_nombre_187)"/><path d="M11.86,1.02c-.19-.02-.38-.04-.57-.06-1.49-.12-2.85,0-4.04.25,0,0,.76,8.8.84,8.93l1.99-.07.03-3.83,1.51-.02v-1.97s-1.57,0-1.57,0l-.06-1.32h1.97c.03-.26.05-.57.04-.92-.02-.38-.07-.72-.13-1ZM9.65,2.67l.1,1.9h1.56v1.38l-1.58.06.09,3.86-1.5.02s-.74-8.44-.67-8.44c0,0,3.53-.29,3.9-.17l.08,1.35-1.99.04Z" fill="#848280"/><polygon points="11.16 5.29 10.38 5.75 11.16 5.75 11.16 5.29" fill="#848280"/><polygon points="8.24 7.12 8.43 9.76 9.65 9.74 9.6 6.28 8.24 7.12" fill="#848280"/><path d="M16.59,3.5c0-.22,0-.47-.02-.73-.03-.33-.07-.62-.13-.88,0,0-1.69-.52-3.91-.76,0,0,.08,5.14-.24,8.75.65-.08,1.29-.15,1.94-.23.09-.39.17-.8.24-1.23.13-.78.21-1.52.26-2.21h1.33l.15-1.64-1.34-.1c.02-.39.04-.78.06-1.18.1.03.2.05.31.08.49.11.94.14,1.35.13ZM15.93,4.78s.02.73-.09,1.21h-1.38s-.07,1.2-.5,3.41c0,0-.04.07-1.4.19,0,0,.61-4.04.35-8.21,0,0,.74.07,3.35.67l.04,1.13-1.68-.22-.02,1.75,1.34.07Z" fill="#848280"/><path d="M12.72,9.46c1.24-.14,1.12-.18,1.12-.18.26-1.16.43-3.06.43-3.06l-1.32.76-.23,2.48Z" fill="#848280"/><polygon points="15.73 5.4 14.99 5.81 15.74 5.82 15.73 5.4" fill="#848280"/><path d="M6.41.93c-.44.04-.91.09-1.4.18-1.39.24-2.57.64-3.53,1.05,0,.14.02.29.03.44.04.42.1.82.18,1.18l1.07-.2s.86,5.11,1.65,6.67c.31.05.62.09.94.13.36.05.72.09,1.07.13l-1.15-7.38,1.32-.18-.18-2.02ZM4.89,2.87c-.01.99,1.17,7.3,1.17,7.3-1.31-.03-1.49-.17-1.49-.17-1.01-2.94-1.52-6.79-1.52-6.79l-1.14.26-.09-1.17c1.56-.54,4.21-1.05,4.21-1.05l.16,1.45-1.29.17Z" fill="#848280"/><path d="M4.73,9.89c.54.12,1.09.09,1.09.09-.17-.27-.81-4.27-.81-4.27l-1.14.95.86,3.23Z" fill="#848280"/><path d="M6.55.61S1.39,1.62,1.3,2.09c-.09.47.11,1.79.16,1.85.04.06.14.1.25.09l.82-.15s.65,3.75,1.61,6.27c0,0,.09.29.35.33s2.05.28,2.05.28c0,0,.17-.05.15-.23,0,0-1.13-7.03-1.01-7.14l1.08-.14s.21,0,.21-.18l-.2-2.34s0-.1-.23-.13ZM5.28,3.14c.14,1.15.3,2.32.48,3.51.2,1.31.41,2.59.63,3.83-.09,0-.18-.01-.27-.02-.59-.05-1.15-.12-1.7-.2,0,0-1.08-3.09-1.65-6.67,0,0-.42.06-1.07.2,0,0-.27-1.58-.16-1.61,0,0,2.61-.96,4.88-1.23l.18,2.02-1.32.18Z" fill="#010101"/><path d="M11.79,4.04h-1.44s-.02-.82-.02-.82h1.79s.12,0,.14-.12c.01-.12-.07-2.07-.07-2.07,0,0-.02-.11-.09-.15s-.95-.3-4.77.03c0,0-.26,0-.36.21,0,0,.7,8.32.84,9.11,0,0,0,.16.2.18.19.02,2.18-.06,2.18-.06,0,0,.17-.06.17-.22,0,0,.06-3.62.03-3.62l1.39-.04s.09,0,.11-.14l.03-2.13s-.01-.11-.13-.17ZM11.62,6.23s-1.14,0-1.47,0c-.06,0-.04,0-.04.02,0,.64-.02,3.68-.03,3.83-.51.03-1.47.05-1.99.07-.05.08-.67-7.13-.84-8.93h0s3.47-.45,4.57-.15c.03.16.05.35.08.59.03.37.08.88.05,1.28-.12,0-1.92,0-1.97,0,0,.11.05,1.16.06,1.32.28,0,1.47,0,1.56,0,0,.4,0,1.2.01,1.7,0,.12,0,.19,0,.27Z" fill="#010101"/><path d="M16.66,1.86c-.04-.15-.21-.17-.21-.17l-3.89-.8c-.33-.05-.32.14-.32.14.06.32.05,4.2.1,4.56.05.35-.33,4.46-.33,4.46.06.14.2.1.2.1l2.01-.37c.12-.11.15-.23.15-.23l.58-3.06s1.05,0,1.18-.04.16-.15.16-.15l.16-1.71c.03-.22-.12-.24-.12-.24l-1.18-.09v-.72s1.26.18,1.45.18c.18,0,.16-.1.16-.1.03-.72-.07-1.59-.11-1.75ZM14.91,3.25l-.03,1.21,1.2.1h.14l-.15,1.64h-1.33s-.38,3.07-.56,3.38l-1.88.29s.6-5.86.24-8.75c0,0,3.28.5,3.91.76,0,0,.09.18.12,1.6,0,0-1.41-.12-1.65-.23Z" fill="#010101"/><path d="M11.05.84c.62-.3,2.81-1.27,5.55-.63,2.25.53,3.62,1.85,4.11,2.37.42.45,2,2.25,2.11,4.97.02.43.03,1.59-.49,2.96-.3.8-1.36,3.23-4.15,4.53-2.8,1.3-5.39.55-5.96.38-.39-.12-3.49-1.15-4.93-4.31-.24-.53-1.15-2.59-.49-4.96.15-.53.34-.95.49-1.24.02.19.03.38.05.58-.15.44-1.11,3.42.69,6.35,1.6,2.61,4.25,3.31,4.75,3.44,3.42.84,6.07-.95,6.43-1.2.35-.25,2.99-2.16,3.24-5.64.22-2.99-1.48-5.04-1.84-5.44-1.53-1.76-3.42-2.3-4.07-2.46-2.34-.56-4.22.1-4.84.35l-.67-.04Z" fill="url(#Degradado_sin_nombre_260)"/><path d="M7.3,4.91l.03.35" fill="#15142b"/></svg>