<?xml version="1.0" encoding="UTF-8"?><svg id="Capa_1" xmlns="http://www.w3.org/2000/svg" xmlns:xlink="http://www.w3.org/1999/xlink" viewBox="0 0 15.66 10.84"><defs><linearGradient id="Degradado_sin_nombre_187" x1="0" y1="8.79" x2="4.24" y2="8.79" gradientUnits="userSpaceOnUse"><stop offset=".16" stop-color="#2993c5"/><stop offset=".91" stop-color="#2993c5" stop-opacity="0"/></linearGradient><linearGradient id="Degradado_sin_nombre_260" x1="4.51" y1="5.42" x2="15.66" y2="5.42" gradientUnits="userSpaceOnUse"><stop offset="0" stop-color="#1f2248"/><stop offset=".29" stop-color="#111025"/><stop offset=".54" stop-color="#15142d"/><stop offset=".72" stop-color="#1d2042"/></linearGradient></defs><path d="M11.21,2.98l-.11-.47s-.07,0-.11-.01c.04.16.07.32.11.48h.11Z" fill="#92c141"/><path d="M8.43,4.63c-.31-.05-.62-.1-.92-.15h-.39v.06c.43.07.87.14,1.3.2,0-.04,0-.08,0-.11Z" fill="#92c141"/><path d="M15.49,4.93c-.03-.31-.16-1.47-1.01-2.63-.33-.45-.65-.74-.79-.86-.23-.2-.87-.72-1.86-1.03-.41-.13-1.91-.59-3.42.02-.13.05-.23.1-.3.14l.18.03.31-.13c.08-.03.13,0,.13,0l-.09.14s2.16.43,2.45.49c.29.06.31.1.31.1l.58-.28c.22-.03.22,0,.22,0,0,0,1.28.55,1.63.8.34.25.41.5.41.5,0,0,0,.07.24.79.23.72.15.69.15.69,0,0-1.08.63-1.18.69-.1.05-.2,0-.2,0l-1.96-1.23s-.11,1.04-.12,1.14c0,.1-.11.11-.11.11-.28,0-.56,0-.85,0-.1.6-.2,1.2-.3,1.8.31.57.38.81.37.91,0,0-.02.18-.02.18,0,0-1.37,1.57-1.42,1.61-.05.04-.08.03-.08.03-1.11-.34-2.01-.73-2.01-.73-.5-.67-.59-1.07-.59-1.07h-.11c.18.47.49.97.55,1.09.05.12.02.87.02.87-.52-.49-1.46-1.52-1.67-3.03-.04-.29-.05-.57-.04-.82l.28.31c-.06-.65-.13-1.31-.19-1.96-.16.49-.46,1.62-.14,2.98.11.45.42,1.72,1.61,2.77,1.32,1.17,2.84,1.28,3.28,1.31,1.22.07,2.11-.28,2.3-.35.88-.36,1.41-.87,1.73-1.19.38-.37,1.24-1.24,1.56-2.65.06-.26.17-.83.1-1.57ZM11.91.55h0s1.31.51,1.42.8c0,0-1.32-.61-1.42-.8ZM10.9,10.43c-.62.06-.96.01-.96.01l.1-.12s1.59-.14,1.68-.11c0,0-.2.16-.83.22ZM13.69,8.55l-.84.91c-.55.63-.83.64-.83.64-.21.08-1.98.12-2.02.11-.04-.01-.06-.05-.06-.05l-1.02-1.09s.48-.56.48-.56l.06-.1c.06-.1.97-1.1.97-1.1.55-.11,2.48-.14,2.48-.14.11,0,.12.05.12.05l.29.51.35.61c.04.16,0,.21,0,.21ZM15.38,5.73c-.02.25-.13,1.21-.35,1.52,0,0-.09.3-.49.62l-.63.47s-.06.08-.15-.08l-.63-1.1s-.03-.49.03-.85l.2-1.52s.03-.23.16-.3l1.15-.67s.07-.07.14.06c0,0,.36.49.55.91,0,0,.06.69.03.95Z" fill="#92c141"/><path d="M0,9.77h.54s.67-.76,3.45-.87l.25-1.09s-2.59.79-4.24,1.96" fill="url(#Degradado_sin_nombre_187)"/><path d="M8.14.7c-.13-.02-.26-.03-.39-.04-1.02-.08-1.95,0-2.77.17,0,0,.52,6.04.58,6.13l1.37-.05.02-2.63h1.04s0-1.36,0-1.36h-1.07s-.04-.9-.04-.9h1.35c.02-.18.04-.39.03-.63-.01-.26-.05-.49-.09-.68ZM6.62,1.83l.07,1.31h1.07v.94l-1.08.04.06,2.65-1.03.02s-.51-5.79-.46-5.79c0,0,2.42-.2,2.67-.11l.05.93-1.36.03Z" fill="#848280"/><polygon points="7.65 3.63 7.12 3.94 7.65 3.94 7.65 3.63" fill="#848280"/><polygon points="5.66 4.88 5.78 6.7 6.62 6.68 6.58 4.31 5.66 4.88" fill="#848280"/><path d="M11.38,2.4c0-.15,0-.32-.01-.5-.02-.22-.05-.43-.09-.6,0,0-1.16-.35-2.68-.52,0,0,.05,3.53-.16,6,.44-.05.89-.11,1.33-.16.06-.27.12-.55.16-.84.09-.54.15-1.04.18-1.52h.91l.1-1.13-.92-.07c.01-.27.03-.54.04-.81.07.02.14.04.21.05.34.07.65.09.92.09ZM10.93,3.28s.01.5-.06.83h-.95s-.05.82-.35,2.34c0,0-.03.05-.96.13,0,0,.42-2.77.24-5.63,0,0,.51.05,2.3.46l.03.77-1.16-.15v1.2s.91.05.91.05Z" fill="#848280"/><path d="M8.72,6.49c.85-.1.77-.12.77-.12.18-.8.3-2.1.3-2.1l-.91.52-.16,1.7Z" fill="#848280"/><polygon points="10.79 3.7 10.28 3.98 10.8 3.99 10.79 3.7" fill="#848280"/><path d="M4.4.64c-.3.02-.62.06-.96.12-.95.16-1.76.44-2.42.72,0,.1.01.2.02.3.03.29.07.56.12.81l.74-.14s.59,3.51,1.13,4.58c.21.03.43.06.64.09.25.03.5.06.74.09l-.79-5.06.91-.13-.13-1.39ZM3.35,1.97c0,.68.8,5.01.8,5.01-.9-.02-1.02-.11-1.02-.11-.69-2.02-1.04-4.66-1.04-4.66l-.79.18-.06-.8c1.07-.37,2.89-.72,2.89-.72l.11.99-.88.12Z" fill="#848280"/><path d="M3.24,6.79c.37.08.75.06.75.06-.12-.18-.56-2.93-.56-2.93l-.78.65.59,2.22Z" fill="#848280"/><path d="M4.49.42S.96,1.11.89,1.44c-.06.33.08,1.23.11,1.27.03.04.1.07.17.06l.56-.1s.45,2.57,1.11,4.3c0,0,.06.2.24.22s1.41.19,1.41.19c0,0,.12-.03.1-.16,0,0-.78-4.83-.69-4.9l.74-.09s.14,0,.14-.12l-.14-1.61s0-.07-.16-.09ZM3.62,2.15c.1.79.21,1.59.33,2.41.13.9.28,1.78.43,2.63-.06,0-.12,0-.18-.01-.4-.03-.79-.08-1.16-.14,0,0-.74-2.12-1.13-4.58,0,0-.29.04-.74.14,0,0-.18-1.08-.11-1.11,0,0,1.79-.66,3.35-.84l.13,1.39-.91.13Z" fill="#010101"/><path d="M8.09,2.77h-.99s-.02-.56-.02-.56h1.23s.08,0,.09-.08c0-.09-.05-1.42-.05-1.42,0,0-.01-.08-.06-.1s-.65-.2-3.27.02c0,0-.18,0-.24.15,0,0,.48,5.71.57,6.25,0,0,0,.11.13.12.13.02,1.49-.04,1.49-.04,0,0,.11-.04.12-.15,0,0,.04-2.48.02-2.48l.95-.03s.06,0,.08-.1l.02-1.46s0-.07-.09-.12ZM7.97,4.27s-.78,0-1.01,0c-.04,0-.03,0-.03.01,0,.44-.02,2.53-.02,2.63-.35.02-1.01.03-1.37.05-.03.06-.46-4.89-.58-6.13h0s2.38-.31,3.14-.1c.02.11.04.24.06.41.02.25.06.6.04.88-.08,0-1.32,0-1.35,0,0,.08.04.8.04.9.19,0,1.01,0,1.07,0,0,.27,0,.82,0,1.17,0,.08,0,.13,0,.18Z" fill="#010101"/><path d="M11.43,1.28c-.03-.11-.14-.12-.14-.12l-2.67-.55c-.23-.03-.22.1-.22.1.04.22.03,2.88.07,3.13.03.24-.22,3.06-.22,3.06.04.1.14.07.14.07l1.38-.26c.08-.07.1-.16.1-.16l.4-2.1s.72,0,.81-.03.11-.1.11-.1l.11-1.18c.02-.15-.08-.16-.08-.16l-.81-.06v-.49s.87.13.99.12c.13,0,.11-.07.11-.07.02-.49-.05-1.09-.08-1.2ZM10.23,2.23l-.02.83.82.07h.1l-.1,1.13h-.91s-.26,2.11-.38,2.32l-1.29.2s.41-4.02.16-6c0,0,2.25.34,2.68.52,0,0,.06.13.08,1.1,0,0-.97-.09-1.13-.16Z" fill="#010101"/><path d="M7.58.58c.42-.2,1.93-.87,3.81-.43,1.55.36,2.48,1.27,2.82,1.63.29.31,1.37,1.55,1.45,3.41.01.29.02,1.09-.33,2.03-.21.55-.93,2.22-2.85,3.11-1.92.89-3.7.38-4.09.26-.26-.08-2.4-.79-3.38-2.96-.17-.37-.79-1.78-.33-3.4.1-.36.24-.65.34-.85.01.13.02.26.04.4-.1.3-.76,2.34.47,4.35,1.1,1.79,2.92,2.27,3.26,2.36,2.35.58,4.16-.65,4.41-.82.24-.17,2.05-1.48,2.22-3.87.15-2.05-1.02-3.46-1.26-3.73-1.05-1.21-2.35-1.58-2.79-1.69-1.6-.39-2.9.07-3.32.24l-.46-.03Z" fill="url(#Degradado_sin_nombre_260)"/><path d="M5.01,3.37l.02.24" fill="#15142b"/></svg>